<svg width="123" height="44" viewBox="0 0 123 44" fill="none" xmlns="http://www.w3.org/2000/svg">
<g clip-path="url(#clip0_6117_13085)">
<path d="M102.728 12.807C83.3042 -1.89648 64.0395 -0.394059 59.2419 0.568085C52.6228 -0.49274 33.6307 -1.62511 16.8663 12.8292C9.23376 19.3916 4.38907 25.8823 0.461278 35.5975C-0.110416 36.979 -0.152126 38.5215 0.344081 39.9316C0.840288 41.3417 1.8398 42.521 3.1525 43.2453C5.9924 44.9007 10.3142 43.8078 11.7961 40.2133C17.4734 26.4621 26.8977 15.9994 40.8246 8.95107C52.9227 2.82789 60.5007 3.24235 71.107 6.66413C60.5404 5.67731 50.9353 7.87544 41.7812 12.8046C32.9839 17.5413 22.9476 26.4867 17.8724 40.1122C17.8649 40.1292 17.8644 40.1485 17.8711 40.1658C17.8779 40.1832 17.8913 40.1972 17.9084 40.2047C17.9254 40.2122 17.9448 40.2127 17.9623 40.206C17.9797 40.1993 17.9937 40.1859 18.0013 40.1689C22.3181 30.7202 31.7349 18.7995 47.622 12.807C56.2954 9.53822 68.9684 7.66821 83.7379 12.9378C95.9673 21.7229 100.824 32.5408 103.104 39.6311C104.12 42.7938 107.597 44.7206 110.786 43.7338C114.88 42.4608 115.968 37.9486 114.454 35.188C112.756 32.0844 104.856 16.6334 84.9943 9.53082C81.2771 6.91823 76.0335 4.38212 71.9124 3.03265C80.784 3.79497 91.0508 6.81461 100.131 12.8021C110.658 19.7468 118.067 29.1807 122.709 40.1862C122.717 40.2004 122.73 40.2111 122.746 40.2162C122.762 40.2212 122.779 40.2203 122.794 40.2135C122.809 40.2068 122.821 40.1947 122.828 40.1796C122.834 40.1646 122.835 40.1476 122.83 40.1319C118.932 29.4299 111.565 19.4902 102.728 12.807ZM8.23013 38.8268C8.11102 39.1045 7.93811 39.356 7.72128 39.567C7.50446 39.778 7.24797 39.9445 6.96649 40.0567C6.68501 40.169 6.38406 40.2249 6.08085 40.2213C5.77763 40.2177 5.47811 40.1546 5.19941 40.0357C4.27508 39.6558 3.40279 38.479 3.89841 37.1739C10.4059 20.0157 26.2013 6.85655 44.0214 4.2785C31.326 8.46506 16.3509 19.8282 8.23013 38.8268ZM96.2969 19.6753C102.501 24.2032 107.557 30.1118 111.061 36.9297C111.612 37.9856 111.096 39.6928 109.646 40.1122C108.083 40.5661 107.077 39.5423 106.752 38.632C106.009 36.5498 103.575 28.3568 96.2969 19.6654V19.6753ZM42.7476 27.9275C41.833 27.9275 40.939 28.1975 40.1786 28.7033C39.4181 29.2092 38.8255 29.9281 38.4755 30.7693C38.1255 31.6105 38.0339 32.5361 38.2123 33.4291C38.3907 34.3221 38.8312 35.1423 39.4779 35.7861C40.1245 36.4299 40.9485 36.8684 41.8455 37.046C42.7425 37.2236 43.6722 37.1325 44.5172 36.784C45.3621 36.4356 46.0843 35.8456 46.5924 35.0885C47.1005 34.3315 47.3717 33.4415 47.3717 32.531C47.3721 31.9263 47.2527 31.3276 47.0204 30.7689C46.7882 30.2102 46.4476 29.7026 46.0181 29.2751C45.5886 28.8476 45.0788 28.5085 44.5176 28.2773C43.9564 28.046 43.355 27.9272 42.7476 27.9275ZM42.7476 34.9314C42.2707 34.9314 41.8045 34.7906 41.408 34.5269C41.0115 34.2631 40.7025 33.8882 40.52 33.4496C40.3375 33.011 40.2897 32.5283 40.3827 32.0627C40.4758 31.597 40.7054 31.1693 41.0426 30.8336C41.3798 30.4979 41.8095 30.2693 42.2772 30.1767C42.7449 30.0841 43.2297 30.1316 43.6703 30.3133C44.1109 30.495 44.4875 30.8026 44.7524 31.1974C45.0174 31.5921 45.1588 32.0562 45.1588 32.531C45.1588 33.1676 44.9048 33.7782 44.4526 34.2283C44.0004 34.6785 43.3871 34.9314 42.7476 34.9314ZM74.9406 28.1619H73.0474C72.9919 28.1625 72.939 28.1849 72.9 28.2241C72.8611 28.2634 72.8392 28.3164 72.8392 28.3716V28.8428C72.0947 28.2527 71.1715 27.931 70.2198 27.93C67.7963 27.93 65.8311 29.9899 65.8311 32.531C65.8311 35.072 67.7963 37.1345 70.2198 37.1345C71.1712 37.1319 72.0939 36.8103 72.8392 36.2217V36.6953C72.8392 36.7505 72.8611 36.8035 72.9 36.8427C72.939 36.882 72.9919 36.9044 73.0474 36.905H74.9406C74.9682 36.905 74.9955 36.8996 75.0209 36.889C75.0463 36.8785 75.0694 36.863 75.0887 36.8435C75.1081 36.824 75.1234 36.8008 75.1337 36.7754C75.144 36.75 75.1491 36.7228 75.1488 36.6953V28.3716C75.1491 28.3441 75.144 28.3169 75.1337 28.2915C75.1234 28.2661 75.1081 28.2429 75.0887 28.2234C75.0694 28.2039 75.0463 28.1884 75.0209 28.1779C74.9955 28.1673 74.9682 28.1619 74.9406 28.1619ZM70.4974 34.9314C70.0208 34.9314 69.5549 34.7908 69.1586 34.5274C68.7622 34.2639 68.4532 33.8895 68.2705 33.4513C68.0878 33.0131 68.0396 32.5308 68.132 32.0654C68.2244 31.6 68.4534 31.1722 68.7898 30.8362C69.1263 30.5002 69.5552 30.271 70.0225 30.1776C70.4897 30.0841 70.9743 30.1306 71.415 30.3112C71.8557 30.4917 72.2328 30.7982 72.4986 31.192C72.7645 31.5858 72.9071 32.0491 72.9086 32.5236V32.5408C72.906 33.1758 72.6508 33.7838 72.1989 34.2318C71.747 34.6799 71.1352 34.9314 70.4974 34.9314ZM53.733 27.9275C52.8729 27.9441 52.0483 28.2721 51.4135 28.8502V28.3716C51.4135 28.3159 51.3913 28.2626 51.3518 28.2233C51.3123 28.184 51.2588 28.1619 51.2029 28.1619H49.2576C49.2022 28.1625 49.1492 28.1849 49.1102 28.2241C49.0713 28.2634 49.0494 28.3164 49.0494 28.3716V36.6978C49.0494 36.7528 49.0714 36.8055 49.1104 36.8443C49.1494 36.8832 49.2024 36.905 49.2576 36.905H51.2029C51.2304 36.9054 51.2578 36.9002 51.2833 36.89C51.3089 36.8797 51.3321 36.8645 51.3517 36.8452C51.3713 36.8259 51.3868 36.803 51.3975 36.7777C51.4081 36.7524 51.4135 36.7252 51.4135 36.6978V31.855C51.4219 31.6101 51.4811 31.3697 51.5872 31.1486C51.6933 30.9276 51.8442 30.7307 52.0303 30.5705C52.2164 30.4102 52.4338 30.2899 52.6688 30.2172C52.9038 30.1444 53.1514 30.1208 53.396 30.1478C53.844 30.2127 54.2527 30.4384 54.5453 30.7823C54.8378 31.1262 54.994 31.5648 54.9845 32.0154V36.7027C54.9845 36.7577 55.0064 36.8104 55.0454 36.8493C55.0845 36.8881 55.1374 36.91 55.1926 36.91H57.1379C57.1655 36.9103 57.1928 36.9052 57.2184 36.8949C57.2439 36.8846 57.2672 36.8694 57.2867 36.8501C57.3063 36.8309 57.3219 36.8079 57.3325 36.7826C57.3431 36.7573 57.3486 36.7302 57.3486 36.7027V31.6428C57.3511 29.6618 55.723 27.8954 53.733 27.9275ZM64.1411 30.6881L64.9514 29.0204C64.9659 28.9949 64.9733 28.9661 64.973 28.9369C64.9726 28.9076 64.9644 28.879 64.9493 28.8539C64.9342 28.8288 64.9127 28.8082 64.8869 28.7941C64.8611 28.78 64.8321 28.7729 64.8027 28.7737H61.5242V26.1512C61.5242 26.096 61.5023 26.0431 61.4634 26.0038C61.4244 25.9646 61.3715 25.9422 61.316 25.9415H59.3682C59.3128 25.9422 59.2599 25.9646 59.2209 26.0038C59.1819 26.0431 59.1601 26.096 59.1601 26.1512V33.6436C59.1601 36.6534 61.0657 37.1345 62.451 37.1345C63.3332 37.1233 64.1935 36.8595 64.9291 36.3746C64.9724 36.3454 65.0038 36.3017 65.0174 36.2515C65.0311 36.2012 65.0261 36.1477 65.0034 36.1008L64.1807 34.4405C64.1701 34.4187 64.1548 34.3995 64.136 34.3841C64.1171 34.3688 64.0952 34.3577 64.0716 34.3516C64.0481 34.3455 64.0235 34.3446 63.9996 34.3488C63.9756 34.3531 63.9529 34.3625 63.9329 34.3763C62.4659 35.2472 61.5143 34.924 61.5143 33.6189V30.8065H63.9527C63.9938 30.8085 64.0346 30.7983 64.0699 30.7772C64.1052 30.7562 64.1334 30.7251 64.151 30.6881H64.1411ZM82.9598 34.3887C82.6064 34.6761 82.1784 34.8577 81.7254 34.9126C81.2725 34.9675 80.8132 34.8932 80.4009 34.6986C79.9887 34.5039 79.6403 34.1968 79.3964 33.8128C79.1525 33.4289 79.0231 32.984 79.0231 32.5297C79.0231 32.0755 79.1525 31.6306 79.3964 31.2466C79.6403 30.8627 79.9887 30.5556 80.4009 30.3609C80.8132 30.1662 81.2725 30.092 81.7254 30.1469C82.1784 30.2017 82.6064 30.3834 82.9598 30.6708C82.9777 30.6876 82.9994 30.6998 83.023 30.7067C83.0466 30.7135 83.0715 30.7147 83.0956 30.7101C83.1198 30.7055 83.1425 30.6953 83.162 30.6804C83.1814 30.6654 83.1971 30.6461 83.2076 30.624L84.0378 28.9464C84.0605 28.9001 84.0657 28.8472 84.0525 28.7974C84.0393 28.7476 84.0086 28.7041 83.9659 28.675C83.2685 28.2226 82.4613 27.966 81.6295 27.9325C80.7978 27.899 79.9724 28.0897 79.2405 28.4845C78.5087 28.8794 77.8975 29.4637 77.4716 30.1757C77.0457 30.8877 76.8209 31.701 76.8209 32.5297C76.8209 33.3584 77.0457 34.1718 77.4716 34.8838C77.8975 35.5958 78.5087 36.1801 79.2405 36.5749C79.9724 36.9698 80.7978 37.1605 81.6295 37.127C82.4613 37.0935 83.2685 36.8369 83.9659 36.3845C84.0086 36.3554 84.0393 36.3119 84.0525 36.2621C84.0657 36.2123 84.0605 36.1594 84.0378 36.1131L83.2051 34.4355C83.1942 34.4155 83.179 34.398 83.1606 34.3845C83.1421 34.3709 83.1209 34.3616 83.0984 34.3571C83.076 34.3527 83.0528 34.3532 83.0305 34.3586C83.0083 34.3641 82.9875 34.3743 82.9697 34.3887H82.9598ZM36.2401 34.3887C35.9411 34.6308 35.5882 34.798 35.2109 34.8761C34.8335 34.9543 34.4429 34.9412 34.0717 34.838C33.7005 34.7347 33.3596 34.5442 33.0777 34.2826C32.7958 34.021 32.581 33.6959 32.4515 33.3345C32.3219 32.9732 32.2814 32.5861 32.3332 32.2059C32.3851 31.8257 32.5278 31.4635 32.7494 31.1496C32.971 30.8357 33.2651 30.5793 33.6069 30.402C33.9487 30.2247 34.3282 30.1316 34.7136 30.1306C35.2697 30.1306 35.8088 30.3214 36.2401 30.6708C36.2583 30.6871 36.28 30.6989 36.3035 30.7054C36.327 30.712 36.3517 30.713 36.3757 30.7085C36.3997 30.7039 36.4223 30.6939 36.4417 30.6793C36.4612 30.6646 36.477 30.6457 36.4879 30.624L37.3181 28.9464C37.3408 28.9001 37.3461 28.8472 37.3329 28.7974C37.3197 28.7476 37.2889 28.7041 37.2462 28.675C36.5488 28.2226 35.7416 27.966 34.9099 27.9325C34.0781 27.899 33.2527 28.0897 32.5209 28.4845C31.789 28.8794 31.1779 29.4637 30.752 30.1757C30.3261 30.8877 30.1013 31.701 30.1013 32.5297C30.1013 33.3584 30.3261 34.1718 30.752 34.8838C31.1779 35.5958 31.789 36.1801 32.5209 36.5749C33.2527 36.9698 34.0781 37.1605 34.9099 37.127C35.7416 37.0935 36.5488 36.8369 37.2462 36.3845C37.2889 36.3554 37.3195 36.3117 37.3323 36.2618C37.345 36.2119 37.3391 36.159 37.3156 36.1131L36.4854 34.4355C36.4745 34.4155 36.4593 34.398 36.4409 34.3845C36.4225 34.3709 36.4012 34.3616 36.3788 34.3571C36.3563 34.3527 36.3331 34.3532 36.3109 34.3586C36.2886 34.3641 36.2678 34.3743 36.25 34.3887H36.2401ZM90.4412 30.6881L91.2515 29.0204C91.2661 28.9947 91.2736 28.9657 91.2731 28.9362C91.2726 28.9067 91.2643 28.8779 91.2488 28.8528C91.2334 28.8276 91.2115 28.807 91.1854 28.7931C91.1593 28.7792 91.1299 28.7725 91.1003 28.7737H87.8243V26.1512C87.8243 26.1237 87.8188 26.0964 87.8083 26.071C87.7977 26.0455 87.7822 26.0224 87.7626 26.0029C87.743 25.9835 87.7198 25.968 87.6943 25.9575C87.6687 25.947 87.6413 25.9415 87.6136 25.9415H85.6683C85.6407 25.9415 85.6133 25.947 85.5877 25.9575C85.5622 25.968 85.539 25.9835 85.5194 26.0029C85.4998 26.0224 85.4843 26.0455 85.4737 26.071C85.4632 26.0964 85.4577 26.1237 85.4577 26.1512V33.6436C85.4577 36.6534 87.3658 37.1345 88.7486 37.1345C89.6309 37.124 90.4914 36.8602 91.2267 36.3746C91.2709 36.3462 91.3031 36.3026 91.3172 36.2522C91.3314 36.2017 91.3265 36.1479 91.3035 36.1008L90.4808 34.4405C90.4702 34.4187 90.4549 34.3995 90.4361 34.3841C90.4172 34.3688 90.3953 34.3577 90.3717 34.3516C90.3482 34.3455 90.3236 34.3446 90.2997 34.3488C90.2757 34.3531 90.253 34.3625 90.233 34.3763C88.766 35.2472 87.8144 34.924 87.8144 33.6189V30.8065H90.2528C90.2939 30.8085 90.3347 30.7983 90.37 30.7772C90.4053 30.7562 90.4335 30.7251 90.4511 30.6881H90.4412Z" fill="#E62A32"/>
</g>
<defs>
<clipPath id="clip0_6117_13085">
<rect width="122.833" height="44" fill="white"/>
</clipPath>
</defs>
</svg>
